<svg width="1440" height="1024" viewBox="0 0 1440 1024" fill="none" xmlns="http://www.w3.org/2000/svg">
<g id="Video Call">
<rect width="1440" height="1024" fill="white"/>
<g id="Background" opacity="0.53">
<g id="Clipped">
<mask id="mask0" mask-type="alpha" maskUnits="userSpaceOnUse" x="303" y="264" width="768" height="560">
<path id="Path" fill-rule="evenodd" clip-rule="evenodd" d="M1070.47 296.463L975.01 801.485C972.328 815.672 958.477 825.343 943.542 823.455L362.175 749.968C349.116 748.318 338.986 738.24 337.768 725.687L303.739 374.957C302.324 360.372 313.314 347.365 328.513 345.637L1039.37 264.832C1058.21 262.69 1073.85 278.6 1070.47 296.463Z" fill="white"/>
</mask>
<g mask="url(#mask0)">
<g id="Group">
<path id="Path_2" d="M1070.47 296.463L975.01 801.485C972.328 815.672 958.477 825.343 943.542 823.455L362.175 749.968C349.116 748.318 338.986 738.24 337.768 725.687L303.739 374.957C302.324 360.372 313.314 347.365 328.513 345.637L1039.37 264.832C1058.21 262.69 1073.85 278.6 1070.47 296.463Z" fill="#E1E9F7"/>
<rect id="Rectangle" x="954.127" y="914.669" width="85.129" height="704.841" rx="12" transform="rotate(180 954.127 914.669)" stroke="white" stroke-width="2"/>
<rect id="Rectangle_2" x="779.908" y="899.511" width="85.129" height="704.841" rx="12" transform="rotate(180 779.908 899.511)" stroke="white" stroke-width="2"/>
<rect id="Rectangle_3" x="597.771" y="903.3" width="85.129" height="704.841" rx="12" transform="rotate(180 597.771 903.3)" stroke="white" stroke-width="2"/>
<rect id="Rectangle_4" x="425.532" y="907.09" width="85.129" height="704.841" rx="12" transform="rotate(180 425.532 907.09)" stroke="white" stroke-width="2"/>
</g>
</g>
</g>
</g>
<g id="Seat">
<rect id="Rectangle_5" x="623.878" y="696.93" width="199.579" height="223.578" rx="12" fill="#1A7A83"/>
<rect id="Rectangle_6" x="623.878" y="696.93" width="120.074" height="223.578" rx="12" fill="#5CC2AD"/>
</g>
<g id="Screen 2">
<rect id="Rectangle_7" x="748.708" y="297.617" width="222.631" height="228.315" rx="12" fill="white" stroke="#4F216C"/>
<g id="Group_2">
<rect id="Rectangle_8" x="769.55" y="322.248" width="54" height="5.684" rx="2.842" fill="#DCDCF1"/>
<rect id="Rectangle_9" x="769.445" y="336.669" width="29.893" height="5.684" rx="2.842" fill="#DCDCF1"/>
</g>
<g id="Clipped_2">
<mask id="mask1" mask-type="alpha" maskUnits="userSpaceOnUse" x="781" y="337" width="170" height="171">
<path id="Oval" fill-rule="evenodd" clip-rule="evenodd" d="M865.974 507.08C912.779 507.08 950.722 469.137 950.722 422.332C950.722 375.527 912.779 337.584 865.974 337.584C819.169 337.584 781.226 375.527 781.226 422.332C781.226 469.137 819.169 507.08 865.974 507.08Z" fill="white"/>
</mask>
<g mask="url(#mask1)">
<g id="Group_3">
<path id="Path_3" d="M887.474 462.773H855.656C849.028 462.773 843.656 457.4 843.656 450.773V387.76C843.656 380.834 846.407 374.192 851.304 369.295C856.201 364.398 862.843 361.647 869.769 361.647H873.362C887.783 361.647 899.475 373.338 899.475 387.76V450.773C899.475 453.956 898.21 457.008 895.96 459.259C893.709 461.509 890.656 462.773 887.474 462.773V462.773Z" fill="#4F216C"/>
<path id="Path_4" d="M776.41 505.844C796.047 505.886 815.194 495.584 831.07 484.156C840.07 477.675 848.031 470.83 854.418 465.306C860.729 459.85 863.432 451.387 859.4 444.084C857.163 440.033 853.306 437.127 848.795 436.095C844.284 435.064 839.547 436.003 835.772 438.679C828.35 443.949 820.167 450.379 811.949 456.453C798.394 466.484 784.755 475.553 774.326 476.887C741.481 481.072 698.487 462.273 696.64 468.407C693.76 477.963 749.809 505.784 776.41 505.844Z" fill="#4F216C"/>
<path id="Path_5" d="M811.949 456.453L831.07 484.153C840.07 477.672 848.031 470.827 854.418 465.303C860.729 459.847 863.432 451.384 859.4 444.081C857.164 440.03 853.306 437.124 848.795 436.092C844.285 435.061 839.548 436 835.772 438.676C828.35 443.949 820.167 450.379 811.949 456.453Z" fill="#F1884F"/>
<path id="Path_6" d="M924.033 568.51H804.561C808.773 528.91 811.752 489.91 821.844 457.81C826.682 442.504 840.891 432.105 856.944 432.121H881.079C898.787 432.143 913.98 444.747 917.273 462.147C923.733 495.922 923.217 531.433 924.033 568.51Z" fill="#F1884F"/>
<path id="Path_7" opacity="0.33" d="M917.91 466.639C917.91 466.639 905.426 513.724 882.597 530.846C859.768 547.968 805.905 555.1 805.905 555.1L807.688 536.2C807.688 536.2 886.164 498.746 887.947 496.963C889.73 495.18 916.7 463.435 916.7 463.435L917.91 466.639Z" fill="#1D0A2B"/>
<path id="Path_8" d="M774.055 527.116C775.089 537.045 838.178 540.086 862.737 529.869C880.189 522.609 893.278 507.046 903.19 491.281C908.725 482.225 913.803 472.897 918.405 463.332C922.116 455.869 921.345 447.016 914.805 441.839C911.178 438.965 906.498 437.773 901.938 438.563C897.379 439.352 893.372 442.048 890.923 445.974C886.56 452.974 881.123 461.553 875.572 469.999C864.906 486.24 853.791 501.963 849 504.945C820.878 522.423 773.394 520.745 774.055 527.116Z" fill="#4F216C"/>
<path id="Path_9" d="M874.526 469.626L903.419 492.9C909.646 483 914.389 471.388 918.405 463.331C922.116 455.868 921.345 447.015 914.805 441.838C911.179 438.964 906.499 437.772 901.939 438.562C897.38 439.351 893.373 442.047 890.923 445.973C886.56 452.971 880.075 461.18 874.526 469.626Z" fill="#F1884F"/>
<path id="Path_10" d="M864.579 402.476V436.541C864.544 439.871 866.3 442.962 869.178 444.637C872.056 446.312 875.612 446.312 878.49 444.637C881.368 442.962 883.124 439.871 883.09 436.541V402.476H864.579Z" fill="#FCBB9D"/>
<path id="Path_11" d="M864.579 404.374V425.465C864.579 425.465 877.364 428.346 883.09 415.909V402.476H872.653L864.579 404.374Z" fill="#B98A80"/>
<g id="Group_4">
<path id="Path_12" d="M864.392 400.3V401.14C864.375 406.728 860.515 411.569 855.072 412.83C854.193 413.035 853.294 413.139 852.392 413.14H851.552C844.932 413.121 839.571 407.759 839.552 401.14V400.3C839.571 393.681 844.932 388.319 851.552 388.3H852.392C853.702 388.296 855.003 388.512 856.242 388.94C861.104 390.6 864.377 395.162 864.392 400.3Z" fill="#D06262"/>
<path id="Path_13" d="M864.392 400.3V401.14C864.163 408.005 858.472 413.418 851.604 413.303C844.737 413.189 839.229 407.589 839.229 400.72C839.229 393.851 844.737 388.251 851.604 388.137C858.472 388.022 864.163 393.435 864.392 400.3Z" fill="#EA7E7B"/>
</g>
<path id="Path_14" d="M864.49 417.149H868.857C876.72 417.149 883.094 410.775 883.094 402.912V372.255H850.166L850.253 385.003V402.903C850.251 406.68 851.75 410.304 854.42 412.976C857.09 415.648 860.713 417.149 864.49 417.149Z" fill="#FCBB9D"/>
<path id="Oval_2" d="M883.501 407.891C886.492 407.891 888.916 405.467 888.916 402.476C888.916 399.485 886.492 397.061 883.501 397.061C880.51 397.061 878.086 399.485 878.086 402.476C878.086 405.467 880.51 407.891 883.501 407.891Z" fill="#FCBB9D"/>
<path id="Path_15" d="M850.166 372.259C850.166 372.259 863.008 389.916 872.817 392.948C882.626 395.98 885.659 395.088 885.659 395.088V368.157L850.166 372.259Z" fill="#4F216C"/>
<path id="Path_16" d="M867.123 401.585L856.288 401.718C856.288 401.718 854.281 410.458 862.129 410.056C868.413 409.735 867.123 401.585 867.123 401.585Z" fill="white"/>
<path id="Path_17" opacity="0.33" d="M840.371 436.809C840.371 436.809 820.039 450.721 810.408 472.836C800.777 494.951 800.777 501.016 800.777 501.016L813.619 494.952C813.619 494.952 814.867 455.536 840.371 436.809Z" fill="#1D0A2B"/>
</g>
</g>
</g>
<g id="Group_5">
<path id="Path_18" d="M905.547 407.358V408.198C905.531 413.786 901.671 418.627 896.227 419.888C895.348 420.093 894.449 420.197 893.547 420.198H892.707C886.088 420.179 880.726 414.817 880.707 408.198V407.358C880.726 400.739 886.088 395.377 892.707 395.358H893.547C894.857 395.354 896.159 395.57 897.397 395.998C902.259 397.658 905.533 402.22 905.547 407.358Z" fill="#D06262"/>
<path id="Path_19" d="M905.547 407.358V408.198C905.318 415.063 899.626 420.476 892.759 420.361C885.891 420.247 880.384 414.647 880.384 407.778C880.384 400.909 885.891 395.309 892.759 395.195C899.626 395.08 905.318 400.493 905.547 407.358Z" fill="#EA7E7B"/>
<rect id="Rectangle_10" x="892.599" y="403.877" width="7.058" height="7.058" rx="2.789" fill="#D06262"/>
<path id="Path_20" d="M863.126 372.409C863.126 372.409 883.231 365.672 889.968 378.935C896.705 392.198 896.705 395.987 896.705 395.987L889.336 396.198C889.336 396.198 884.81 371.988 863.126 372.409Z" fill="#D06262"/>
</g>
</g>
<g id="Screen 1">
<rect id="Rectangle_11" x="436.34" y="247.933" width="222.631" height="228.315" rx="12" fill="white" stroke="#4F216C"/>
<g id="Group_6">
<path id="Path_21" d="M541.816 340.25V341.09C541.833 346.678 545.693 351.519 551.136 352.78C552.015 352.985 552.914 353.089 553.816 353.09H554.656C561.276 353.071 566.637 347.709 566.656 341.09V340.25C566.637 333.631 561.276 328.269 554.656 328.25H553.816C552.506 328.246 551.205 328.462 549.966 328.89C545.104 330.55 541.831 335.112 541.816 340.25Z" fill="#D06262"/>
<path id="Path_22" d="M541.816 340.25V341.09C542.046 347.955 547.737 353.368 554.604 353.253C561.472 353.139 566.979 347.539 566.979 340.67C566.979 333.801 561.472 328.201 554.604 328.087C547.737 327.972 542.046 333.385 541.816 340.25Z" fill="#EA7E7B"/>
</g>
<g id="Clipped_3">
<mask id="mask2" mask-type="alpha" maskUnits="userSpaceOnUse" x="457" y="291" width="168" height="167">
<path id="Oval_3" fill-rule="evenodd" clip-rule="evenodd" d="M541.177 457.755C587.201 457.755 624.512 420.445 624.512 374.42C624.512 328.395 587.201 291.085 541.177 291.085C495.152 291.085 457.842 328.395 457.842 374.42C457.842 420.445 495.152 457.755 541.177 457.755Z" fill="white"/>
</mask>
<g mask="url(#mask2)">
<g id="Group_7">
<path id="Path_23" d="M623.987 437.072C604.677 437.113 585.85 426.983 570.239 415.745C561.383 409.373 553.561 402.645 547.279 397.21C541.073 391.845 538.416 383.523 542.379 376.342C544.579 372.358 548.371 369.501 552.807 368.486C557.243 367.471 561.901 368.396 565.613 371.027C572.913 376.209 580.958 382.527 589.039 388.504C602.368 398.368 615.78 407.29 626.034 408.598C658.334 412.713 700.61 394.228 702.426 400.259C705.26 409.656 650.145 437.013 623.987 437.072Z" fill="#FCBB9D"/>
<path id="Path_24" d="M589.041 388.5L570.241 415.741C561.385 409.369 553.563 402.641 547.281 397.206C541.075 391.841 538.418 383.519 542.381 376.338C544.581 372.354 548.373 369.497 552.809 368.482C557.245 367.467 561.903 368.392 565.615 371.023C572.913 376.209 580.96 382.531 589.041 388.5Z" fill="#CD5F5F"/>
<path id="Path_25" d="M596.307 498.7H478.822C479.63 462.237 479.122 427.315 485.469 394.1C488.707 376.992 503.646 364.599 521.057 364.577H544.791C545.641 364.577 546.491 364.61 547.332 364.668C547.472 364.674 547.611 364.688 547.748 364.71C562.403 365.879 574.887 375.816 579.313 389.835C589.235 421.4 592.167 459.751 596.307 498.7Z" fill="#EA7E7B"/>
<path id="Path_26" d="M547.757 365.158V374.358C547.742 379.875 543.273 384.343 537.757 384.358H531.976C526.459 384.343 521.99 379.875 521.976 374.358V365.158C521.976 364.958 521.984 364.766 521.993 364.575H544.785C545.635 364.575 546.485 364.608 547.326 364.666C547.465 364.672 547.604 364.686 547.742 364.708C547.757 364.858 547.757 365.008 547.757 365.158Z" fill="#CD5F5F"/>
<path id="Path_27" d="M630.249 464.829C629.233 474.593 567.195 477.583 543.049 467.537C525.888 460.398 513.017 445.094 503.271 429.591C497.828 420.686 492.834 411.514 488.309 402.109C484.66 394.769 485.418 386.064 491.849 380.974C495.416 378.148 500.017 376.976 504.501 377.752C508.984 378.528 512.925 381.179 515.333 385.039C519.624 391.92 524.972 400.359 530.433 408.665C540.921 424.634 551.851 440.096 556.566 443.028C584.206 460.214 630.9 458.565 630.249 464.829Z" fill="#FCBB9D"/>
<path id="Path_28" d="M544 338.521V372.021C544 377.047 539.926 381.121 534.9 381.121C529.874 381.121 525.8 377.047 525.8 372.021V338.521H544Z" fill="#FCBB9D"/>
<path id="Path_29" d="M530.424 408.665L503.267 429.591C497.824 420.686 492.83 411.514 488.305 402.109C484.656 394.769 485.414 386.064 491.845 380.974C495.412 378.148 500.013 376.976 504.497 377.752C508.981 378.528 512.921 381.179 515.329 385.039C519.62 391.92 524.968 400.359 530.424 408.665Z" fill="#CD5F5F"/>
<path id="Path_30" d="M544 340.387V361.127C544 361.127 531.428 363.959 525.8 351.727V338.521H536.063L544 340.387Z" fill="#B98A80"/>
<path id="Path_31" d="M544.086 352.949H539.791C532.059 352.949 525.791 346.681 525.791 338.949V308.8H564.44L558.084 321.339V338.95C558.083 346.681 551.817 352.948 544.086 352.949Z" fill="#FCBB9D"/>
<path id="Oval_4" d="M525.391 343.845C528.332 343.845 530.716 341.461 530.716 338.52C530.716 335.579 528.332 333.195 525.391 333.195C522.45 333.195 520.066 335.579 520.066 338.52C520.066 341.461 522.45 343.845 525.391 343.845Z" fill="#FCBB9D"/>
<path id="Path_32" d="M564.443 308.8H525.79V320.788H525.798V331.942C525.78 332.832 526.245 333.662 527.012 334.112C527.78 334.562 528.731 334.562 529.499 334.112C530.267 333.662 530.731 332.832 530.713 331.942V325.255H531.906C533.066 325.24 534.081 324.469 534.406 323.355C534.837 321.737 536.361 320.657 538.03 320.787H558.373L564.443 308.8Z" fill="#856EEA"/>
<path id="Path_33" d="M530.424 408.665L510.67 441.094L501.901 428.817L530.424 408.665Z" fill="#E7A58A"/>
<path id="Path_34" d="M589.041 388.504L601.079 432.851L587.75 427.239L581.436 398.476L589.041 388.504Z" fill="#E7A58A"/>
<path id="Path_35" d="M542.107 338.453L550.92 338.321C550.92 338.321 551.446 345.029 546.579 345.556C541.712 346.083 542.107 338.453 542.107 338.453Z" fill="white"/>
<path id="Path_36" d="M497.254 420.399L501.901 428.817L530.424 408.665L524.613 400.406L497.254 420.399Z" fill="#B14949"/>
<path id="Path_37" d="M589.041 388.504L581.436 398.476L579.313 389.833L583.935 384.621L589.041 388.504Z" fill="#B14949"/>
<path id="Path_38" opacity="0.43" d="M557.935 444.075L553.024 447.583L553.375 440.217L557.935 444.075Z" fill="#C86336"/>
<path id="Path_39" opacity="0.43" d="M626.036 408.598L622.124 416.716L619.318 406.895L626.036 408.598Z" fill="#C86336"/>
</g>
</g>
</g>
<g id="Group_8">
<path id="Path_40" d="M512.023 340.64V341.43C512.161 346.831 516.039 351.408 521.343 352.43C522.224 352.623 523.122 352.721 524.023 352.722H524.863C531.463 352.722 536.863 347.641 536.863 341.43V340.64C536.863 334.429 531.463 329.348 524.863 329.348H524.023C522.716 329.343 521.417 329.546 520.173 329.948C515.423 331.363 512.129 335.684 512.023 340.64Z" fill="#D06262"/>
<path id="Path_41" d="M512.023 340.64V341.43C512.161 346.831 516.039 351.408 521.343 352.43C527.233 351.715 531.813 346.954 531.813 341.23C531.794 338.198 530.519 335.309 528.293 333.25C526.081 331.194 523.193 330.02 520.173 329.95C515.423 331.365 512.13 335.685 512.023 340.64Z" fill="#EA7E7B"/>
<rect id="Rectangle_12" x="524.971" y="344.005" width="7.058" height="6.641" rx="2.789" transform="rotate(180 524.971 344.005)" fill="#D06262"/>
<path id="Path_42" d="M554.445 307.753C554.445 307.753 534.339 301.414 527.603 313.894C520.867 326.374 520.866 329.94 520.866 329.94L528.234 330.14C528.234 330.14 532.761 307.357 554.445 307.753Z" fill="#D06262"/>
</g>
<g id="Group_9">
<rect id="Rectangle_13" x="447.708" y="285.827" width="54" height="5.684" rx="2.842" fill="#DCDCF1"/>
<rect id="Rectangle_14" x="447.603" y="300.248" width="29.893" height="5.684" rx="2.842" fill="#DCDCF1"/>
</g>
</g>
<g id="Plant">
<path id="Path_43" d="M466.391 922.191H450.361C450.631 909.331 450.721 887.791 449.271 862.861C447.731 836.541 444.481 806.441 437.931 778.781C421.561 709.691 364.921 656.701 363.161 655.071C365.281 656.411 442.781 706.671 459.171 767.701C465.541 791.401 467.971 820.921 468.551 848.321C469.221 879.671 467.471 908.241 466.391 922.191Z" fill="#5CC2AD"/>
<path id="Path_44" d="M509.951 713.221C509.561 714.441 484.931 791.391 481.491 852.331C481.431 853.371 481.381 854.411 481.331 855.441C479.871 888.001 478.931 909.311 478.371 922.191H465.451C465.411 906.491 465.831 878.851 468.551 848.321C473.091 797.291 484.041 738.181 509.951 713.221Z" fill="#1A7A83"/>
<path id="Path_45" d="M486.1 911.381C486.16 915.361 486.29 918.991 486.46 922.191H467.15C468.15 912.551 470.14 898.581 473.94 878.521C475.667 869.582 478.193 860.817 481.49 852.331C496.55 813.271 523.69 786.281 524.71 785.281C490.481 822.031 485.631 878.5 486.1 911.381Z" fill="#5CC2AD"/>
<path id="Path_46" d="M457.741 922.191H436.541C436.151 914.381 435.431 903.811 434.091 891.441C432.721 878.811 430.721 864.321 427.771 848.971C418.531 800.951 358.501 768.631 358.501 768.631C358.501 768.631 409.301 773.241 436.081 827.731C441.571 839.001 445.987 850.763 449.271 862.861C454.49 882.221 457.334 902.144 457.741 922.191Z" fill="#1A7A83"/>
<path id="Path_47" d="M531.2 872.061C510.96 889.261 502.64 908.401 499.26 922.191H482.33C483.43 918.781 484.7 915.081 486.1 911.381C488.491 904.761 491.536 898.396 495.19 892.381C505.341 876.681 531.2 872.061 531.2 872.061Z" fill="#1A7A83"/>
<path id="Path_48" d="M446.791 922.191H427.141C426.621 917.571 425.931 912.741 425.001 908.081C421.301 889.611 404.681 868.371 404.681 868.371C417.441 869.431 427.071 879.471 434.091 891.441C440.151 901.761 444.271 913.521 446.791 922.191Z" fill="#5CC2AD"/>
</g>
<g id="Plant 2">
<path id="Path_49" d="M926.047 920.612H942.077C941.807 907.752 941.717 886.212 943.167 861.282C944.707 834.962 947.957 804.862 954.507 777.202C970.877 708.112 1027.52 655.122 1029.28 653.492C1027.16 654.832 949.657 705.092 933.267 766.122C926.897 789.822 924.467 819.342 923.887 846.742C923.217 878.092 924.967 906.662 926.047 920.612Z" fill="#5CC2AD"/>
<path id="Path_50" d="M882.487 711.642C882.877 712.862 907.507 789.812 910.947 850.752C911.007 851.792 911.057 852.832 911.107 853.862C912.567 886.422 913.507 907.732 914.067 920.612H926.987C927.027 904.912 926.607 877.272 923.887 846.742C919.347 795.712 908.4 736.6 882.487 711.642Z" fill="#1A7A83"/>
<path id="Path_51" d="M906.337 909.8C906.277 913.78 906.147 917.41 905.977 920.61H925.287C924.287 910.97 922.297 897 918.497 876.94C916.77 868.001 914.244 859.236 910.947 850.75C895.887 811.69 868.747 784.7 867.727 783.7C901.957 820.452 906.807 876.922 906.337 909.8Z" fill="#5CC2AD"/>
<path id="Path_52" d="M934.7 920.612H955.9C956.29 912.802 957.01 902.232 958.35 889.862C959.72 877.232 961.72 862.742 964.67 847.392C973.91 799.372 1033.94 767.052 1033.94 767.052C1033.94 767.052 983.14 771.662 956.36 826.152C950.871 837.422 946.454 849.184 943.17 861.282C937.952 880.642 935.107 900.565 934.7 920.612H934.7Z" fill="#1A7A83"/>
<path id="Path_53" d="M861.237 870.482C881.477 887.682 889.797 906.822 893.177 920.612H910.107C909.007 917.202 907.737 913.502 906.337 909.802C903.947 903.182 900.902 896.817 897.247 890.802C887.1 875.1 861.237 870.482 861.237 870.482Z" fill="#1A7A83"/>
<path id="Path_54" d="M945.647 920.612H965.3C965.82 915.992 966.51 911.162 967.44 906.502C971.14 888.032 987.76 866.792 987.76 866.792C975 867.852 965.37 877.892 958.35 889.862C952.287 900.182 948.167 911.942 945.647 920.612Z" fill="#5CC2AD"/>
</g>
<g id="Button">
<path id="Oval_5" d="M994.087 614.933C1008.74 614.933 1020.61 603.057 1020.61 588.407C1020.61 573.757 1008.74 561.881 994.087 561.881C979.437 561.881 967.561 573.757 967.561 588.407C967.561 603.057 979.437 614.933 994.087 614.933Z" fill="#EE5050"/>
<path id="Oval_6" d="M920.824 615.564C935.474 615.564 947.35 603.688 947.35 589.038C947.35 574.388 935.474 562.512 920.824 562.512C906.174 562.512 894.298 574.388 894.298 589.038C894.298 603.688 906.174 615.564 920.824 615.564Z" fill="#AFAFD5"/>
<path id="Path_55" d="M1002.81 575.73L984.649 596.36C984.459 596.573 984.373 596.859 984.413 597.141C984.454 597.423 984.617 597.673 984.859 597.824L987.002 599.224C987.462 599.526 988.076 599.441 988.437 599.024L1005.84 578.037C1006.01 577.832 1006.09 577.565 1006.05 577.3C1006.02 577.035 1005.88 576.795 1005.67 576.637L1004.28 575.591C1003.83 575.252 1003.19 575.312 1002.81 575.73Z" fill="white"/>
<path id="Path_56" d="M983.386 580.844L1000.6 597.777C1001.25 598.417 1002.29 598.413 1002.94 597.768L1004.59 596.112C1004.92 595.782 1005.1 595.329 1005.08 594.863C1005.06 594.397 1004.84 593.962 1004.48 593.663L985.883 578.118C985.224 577.566 984.252 577.609 983.644 578.218L983.376 578.486C983.063 578.799 982.888 579.224 982.89 579.667C982.892 580.11 983.07 580.534 983.386 580.844Z" fill="white"/>
<path id="Path_57" d="M907.193 583.301L907.509 598.933L924.245 598.617L924.087 582.512L907.193 583.301Z" fill="white"/>
<path id="Path_58" d="M926.14 585.67L925.982 593.88L934.351 598.933L934.035 583.143L926.14 585.67Z" fill="white"/>
</g>
<g id="Button 2">
<path id="Oval_7" d="M440.825 561.88C455.475 561.88 467.351 550.004 467.351 535.354C467.351 520.704 455.475 508.828 440.825 508.828C426.175 508.828 414.299 520.704 414.299 535.354C414.299 550.004 426.175 561.88 440.825 561.88Z" fill="#EE5050"/>
<path id="Oval_8" d="M367.562 562.512C382.212 562.512 394.088 550.636 394.088 535.986C394.088 521.336 382.212 509.46 367.562 509.46C352.912 509.46 341.036 521.336 341.036 535.986C341.036 550.636 352.912 562.512 367.562 562.512Z" fill="#AFAFD5"/>
<path id="Path_59" d="M449.551 522.677L431.386 543.307C431.197 543.52 431.111 543.806 431.152 544.088C431.192 544.371 431.355 544.621 431.597 544.772L433.74 546.172C434.202 546.473 434.816 546.385 435.175 545.967L452.575 524.979C452.747 524.774 452.826 524.507 452.793 524.242C452.761 523.976 452.62 523.736 452.404 523.579L451.022 522.532C450.567 522.195 449.931 522.257 449.551 522.677Z" fill="white"/>
<path id="Path_60" d="M430.124 527.792L447.335 544.725C447.985 545.365 449.03 545.36 449.674 544.715L451.331 543.059C451.661 542.729 451.836 542.276 451.816 541.81C451.795 541.344 451.579 540.909 451.221 540.61L432.621 525.065C431.961 524.514 430.99 524.557 430.382 525.165L430.114 525.433C429.801 525.746 429.626 526.172 429.628 526.615C429.63 527.057 429.808 527.481 430.124 527.792Z" fill="white"/>
<path id="Path_61" d="M353.931 530.249L354.247 545.88L370.983 545.565L370.825 529.459L353.931 530.249Z" fill="white"/>
<path id="Path_62" d="M372.878 532.617L372.72 540.828L381.089 545.88L380.773 530.091L372.878 532.617Z" fill="white"/>
</g>
<g id="Human">
<g id="Headseat">
<path id="Path_63" d="M689.814 462.987V463.827C689.797 469.415 685.937 474.257 680.493 475.517C679.614 475.722 678.716 475.826 677.814 475.827H676.973C670.353 475.808 664.992 470.446 664.973 463.827V462.987C664.992 456.368 670.353 451.006 676.973 450.987H677.814C679.123 450.983 680.425 451.2 681.663 451.627C686.525 453.287 689.799 457.849 689.814 462.987Z" fill="#D06262"/>
<path id="Path_64" d="M689.814 462.987V463.827C689.585 470.691 683.894 476.104 677.027 475.989C670.16 475.875 664.653 470.275 664.653 463.407C664.653 456.539 670.16 450.939 677.027 450.825C683.894 450.71 689.585 456.123 689.814 462.987Z" fill="#EA7E7B"/>
<rect id="Rectangle_15" x="257.729" y="919.616" width="924.63" height="5.053" fill="#4F216C"/>
<rect id="Rectangle_16" x="676.865" y="459.506" width="7.058" height="7.058" rx="2.789" fill="#D06262"/>
<path id="Path_65" d="M506.445 502.774L527.918 559.616L520.655 560.879L500.761 504.985L506.445 502.774Z" fill="#4F216C"/>
<path id="Path_66" d="M524.55 560.037C524.55 560.037 529.182 574.774 547.708 576.879C566.234 578.984 574.655 550.353 597.813 554.564C620.971 558.775 640.339 574.774 657.181 565.511C674.023 556.248 669.813 510.353 669.813 493.932C669.813 477.511 673.181 475.406 673.181 475.406" stroke="#4F216C"/>
<g id="Group_10">
<path id="Path_67" d="M727.077 460.25V461.09C727.061 466.678 723.2 471.52 717.756 472.78C716.878 472.985 715.979 473.089 715.077 473.09H714.236C707.617 473.071 702.256 467.709 702.236 461.09V460.25C702.256 453.631 707.617 448.269 714.236 448.25H715.077C716.387 448.246 717.688 448.463 718.926 448.89C723.789 450.55 727.063 455.112 727.077 460.25Z" fill="#D06262"/>
<path id="Path_68" d="M727.077 460.25V461.09C726.848 467.954 721.157 473.367 714.29 473.252C707.423 473.138 701.916 467.538 701.916 460.67C701.916 453.802 707.423 448.202 714.29 448.088C721.157 447.973 726.848 453.386 727.077 460.25Z" fill="#EA7E7B"/>
<rect id="Rectangle_17" x="714.129" y="456.769" width="7.058" height="7.058" rx="2.789" fill="#D06262"/>
<path id="Path_69" d="M684.655 425.3C684.655 425.3 704.76 418.563 711.497 431.826C718.234 445.089 718.234 448.879 718.234 448.879L710.865 449.089C710.865 449.089 706.339 424.88 684.655 425.3Z" fill="#D06262"/>
</g>
</g>
<path id="Path_70" d="M580.409 887.283L576.618 911.365H564.465L564.428 890.005L580.409 887.283Z" fill="#FCBB9D"/>
<path id="Path_71" d="M629.154 656.081C629.154 656.081 559.412 712.119 553.276 753.975C549.907 776.954 564.2 892.207 564.2 892.207H579.774C579.774 892.207 597.449 768.954 607.542 755.421C619.317 739.632 662.675 724.677 687.069 700.528C699.953 687.774 703.197 656.081 703.197 656.081H629.154Z" fill="#6D68DF"/>
<path id="Path_72" d="M578.83 920.851L576.764 910.079H564.538C560.283 910.079 556.28 912.732 553.743 917.233C552.9 918.733 553.71 920.851 555.124 920.851H578.83Z" fill="#5F2882"/>
<path id="Path_73" d="M647.478 887.283L643.687 911.365H631.533L631.497 890.005L647.478 887.283Z" fill="#FCBB9D"/>
<path id="Path_74" d="M696.134 656.081C696.134 656.081 626.481 712.119 620.345 753.975C616.976 776.954 631.269 892.207 631.269 892.207H646.843C646.843 892.207 664.518 768.954 674.61 755.421C686.63 739.305 728.858 731.751 754.833 709.47C772.601 694.23 770.266 656.081 770.266 656.081H696.134Z" fill="#856EEA"/>
<path id="Path_75" d="M645.9 920.851L643.833 910.079H631.607C627.352 910.079 623.348 912.732 620.812 917.233C619.969 918.733 620.779 920.851 622.193 920.851H645.9Z" fill="#5F2882"/>
<path id="Path_76" d="M748.473 656.081C748.473 656.081 750.643 692.852 726.558 705.19C716.475 710.356 666.303 737.634 661.537 754.315C647.415 803.741 641.452 892.207 641.452 892.207" stroke="white" stroke-linecap="round" stroke-linejoin="round" stroke-dasharray="7"/>
<path id="Path_77" d="M595.925 582.11C619.105 582.16 641.705 570 660.445 556.51C671.075 548.86 680.465 540.78 688.005 534.26C695.455 527.82 698.645 517.83 693.885 509.21C691.245 504.429 686.693 501 681.37 499.782C676.046 498.564 670.456 499.673 666 502.83C657.24 509.05 647.58 516.64 637.88 523.81C621.88 535.65 605.78 546.36 593.47 547.93C554.7 552.87 503.95 530.68 501.77 537.92C498.365 549.2 564.525 582.04 595.925 582.11Z" fill="#FCBB9D"/>
<path id="Path_78" d="M637.875 523.81L660.445 556.51C671.075 548.86 680.465 540.78 688.005 534.26C695.455 527.82 698.645 517.83 693.885 509.21C691.245 504.429 686.693 501 681.37 499.782C676.046 498.564 670.456 499.673 666 502.83C657.235 509.05 647.575 516.64 637.875 523.81Z" fill="#EA7E7B"/>
<path id="Path_79" d="M521.332 541.366C517.648 536.771 512.394 533.703 506.581 532.753C497.045 531.34 487.53 540.203 513.944 550.771C540.358 561.339 521.332 541.366 521.332 541.366Z" fill="#FCBB9D"/>
<path id="Path_80" d="M770.178 656.081H629.154C634.126 609.339 637.642 563.298 649.554 525.406C655.266 507.337 672.039 495.062 690.989 495.083H719.478C740.381 495.109 758.315 509.987 762.2 530.526C769.823 570.4 769.215 612.316 770.178 656.081Z" fill="#EA7E7B"/>
<path id="Path_81" opacity="0.39" d="M763.2 535.63C763.2 535.63 744.252 594.367 730.042 612.367C715.832 630.367 631.2 638.051 631.2 638.051L633.516 614.682L696.884 588.682L733.831 544.156L763.2 535.63Z" fill="#1B1B1D"/>
<path id="Path_82" d="M593.145 607.22C594.365 618.94 668.835 622.53 697.825 610.47C718.425 601.9 733.875 583.53 745.575 564.92C752.109 554.23 758.103 543.22 763.535 531.93C767.915 523.12 767.005 512.67 759.285 506.56C755.004 503.168 749.48 501.761 744.098 502.693C738.716 503.624 733.986 506.806 731.095 511.44C725.945 519.7 719.525 529.83 712.975 539.8C700.385 558.97 687.265 577.53 681.605 581.05C648.415 601.68 592.365 599.7 593.145 607.22Z" fill="#FCBB9D"/>
<path id="Path_83" d="M612.526 602.841C607.354 600.024 601.322 599.222 595.594 600.59C586.252 602.968 580.894 614.817 609.342 614.369C637.79 613.921 612.526 602.841 612.526 602.841Z" fill="#FCBB9D"/>
<path id="Path_84" d="M691.945 463.81V504.02C691.945 510.054 696.837 514.945 702.87 514.945C708.904 514.945 713.795 510.054 713.795 504.02V463.81H691.945Z" fill="#FCBB9D"/>
<path id="Path_85" d="M712.975 539.8L745.575 564.92C752.109 554.23 758.103 543.22 763.535 531.93C767.915 523.12 767.005 512.67 759.285 506.56C755.004 503.168 749.48 501.761 744.098 502.693C738.716 503.624 733.986 506.806 731.095 511.44C725.945 519.7 719.525 529.83 712.975 539.8Z" fill="#EA7E7B"/>
<path id="Path_86" d="M691.945 466.05V490.95C691.945 490.95 707.035 494.35 713.795 479.67V463.81H701.475L691.945 466.05Z" fill="#B98A80"/>
<path id="Path_87" d="M667.4 428.133L674.69 442.523L675.03 443.193V464.323C675.033 473.606 682.558 481.13 691.84 481.133H696.99C706.273 481.13 713.798 473.606 713.8 464.323V428.133L667.4 428.133Z" fill="#FCBB9D"/>
<path id="Oval_9" d="M714.28 470.201C717.81 470.201 720.672 467.339 720.672 463.809C720.672 460.279 717.81 457.417 714.28 457.417C710.749 457.417 707.888 460.279 707.888 463.809C707.888 467.339 710.749 470.201 714.28 470.201Z" fill="#FCBB9D"/>
<path id="Path_88" d="M667.4 428.133H713.8V442.523H713.79V455.913C713.79 457.542 712.47 458.863 710.84 458.863C709.211 458.863 707.89 457.542 707.89 455.913V447.886H706.457C705.065 447.868 703.848 446.943 703.457 445.606C702.941 443.664 701.111 442.368 699.107 442.524H674.692L667.4 428.133Z" fill="#4F216C"/>
<path id="Path_89" d="M680.729 463.473L693.518 463.631C693.518 463.631 695.887 473.947 686.624 473.473C679.206 473.094 680.729 463.473 680.729 463.473Z" fill="white"/>
<path id="Path_90" opacity="0.39" d="M654.989 694.682C654.989 694.682 617.567 723.949 607.542 755.421L623.411 742.472C623.411 742.472 636.253 712.366 654.989 694.682Z" fill="#1B1B1D"/>
<path id="Path_91" opacity="0.39" d="M655.622 510.893C655.622 510.893 643.622 528.577 636.675 543.104C629.728 557.631 625.938 576.156 625.938 576.156L639.622 569.63C639.622 569.63 646.147 523.525 655.622 510.893Z" fill="#1B1B1D"/>
</g>
</g>
</svg>
